<svg xmlns="http://www.w3.org/2000/svg" xmlns:xlink="http://www.w3.org/1999/xlink" width="40px" height="40px" viewBox="0 0 40 40" version="1.1"><defs><linearGradient x1="-18.2950023%" y1="20.7876557%" x2="112.195693%" y2="78.357612%" id="linearGradient-1"><stop stop-color="#261CC6" offset="0%"/><stop stop-color="#A949DE" offset="100%"/></linearGradient><path d="M17.809349,12 C18.1281083,12 18.3865138,12.2584055 18.3865138,12.5771648 L18.3865138,27.7380344 C18.3865138,28.0567937 18.1281083,28.3151992 17.809349,28.3151992 L8.57716478,28.3151992 C8.25840547,28.3151992 8,28.0567937 8,27.7380344 L8,12.5771648 C8,12.2584055 8.25840547,12 8.57716478,12 L17.809349,12 Z M31.658034,24.8190851 C31.9767933,24.8190851 32.2351988,25.0774906 32.2351988,25.3962499 L32.2351988,27.7380344 C32.2351988,28.0567937 31.9767933,28.3151992 31.658034,28.3151992 L22.4258498,28.3151992 C22.1070905,28.3151992 21.848685,28.0567937 21.848685,27.7380344 L21.848685,25.3962499 C21.848685,25.0774906 22.1070905,24.8190851 22.4258498,24.8190851 L31.658034,24.8190851 Z M14.3471777,15.4961141 L12.039336,15.4961141 C11.7524527,15.4961141 11.5144559,15.7054225 11.4697254,15.9796598 L11.4621713,16.0732789 L11.4621713,24.2419203 C11.4621713,24.5288037 11.6714797,24.7668004 11.9457169,24.811531 L12.039336,24.8190851 L14.3471777,24.8190851 C14.6340611,24.8190851 14.8720579,24.6097766 14.9167884,24.3355394 L14.9243425,24.2419203 L14.9243425,16.0732789 C14.9243425,15.7545196 14.665937,15.4961141 14.3471777,15.4961141 Z M31.658034,18.4095425 C31.9767933,18.4095425 32.2351988,18.667948 32.2351988,18.9867073 L32.2351988,21.3284919 C32.2351988,21.6472512 31.9767933,21.9056567 31.658034,21.9056567 L22.4258498,21.9056567 C22.1070905,21.9056567 21.848685,21.6472512 21.848685,21.3284919 L21.848685,18.9867073 C21.848685,18.667948 22.1070905,18.4095425 22.4258498,18.4095425 L31.658034,18.4095425 Z M31.658034,12 C31.9767933,12 32.2351988,12.2584055 32.2351988,12.5771648 L32.2351988,14.9189493 C32.2351988,15.2377086 31.9767933,15.4961141 31.658034,15.4961141 L22.4258498,15.4961141 C22.1070905,15.4961141 21.848685,15.2377086 21.848685,14.9189493 L21.848685,12.5771648 C21.848685,12.2584055 22.1070905,12 22.4258498,12 L31.658034,12 Z" id="path-2"/><filter x="-14.4%" y="-15.3%" width="128.9%" height="142.9%" filterUnits="objectBoundingBox" id="filter-3"><feOffset dx="0" dy="1" in="SourceAlpha" result="shadowOffsetOuter1"/><feGaussianBlur stdDeviation="1" in="shadowOffsetOuter1" result="shadowBlurOuter1"/><feColorMatrix values="0 0 0 0 0.134252336   0 0 0 0 0.127006408   0 0 0 0 0.225430254  0 0 0 0.22 0" type="matrix" in="shadowBlurOuter1"/></filter></defs><g id="Page-1" stroke="none" stroke-width="1" fill="none" fill-rule="evenodd"><rect id="Mask" fill="#FFFFFF" x="0" y="0" width="40" height="40" rx="20"/><use fill="black" fill-opacity="1" filter="url(#filter-3)" xlink:href="#path-2"/><use fill="url(#linearGradient-1)" fill-rule="evenodd" xlink:href="#path-2"/></g></svg>